<?xml version="1.0" encoding="utf-8"?>
<!-- Generator: Adobe Illustrator 24.0.2, SVG Export Plug-In . SVG Version: 6.00 Build 0)  -->
<svg version="1.1" id="Layer_1" xmlns="http://www.w3.org/2000/svg" xmlns:xlink="http://www.w3.org/1999/xlink" x="0px" y="0px"
	 viewBox="0 0 512 512" style="enable-background:new 0 0 512 512;" xml:space="preserve">
<style type="text/css">
	.st0{fill:whitesmoke;}
	.st1{fill:#e1e1e1;}
	.st2{fill:#9B9B9B;}
	.st3{fill:#939393;}
	.st4{fill:#EEEEEE;}
	.st5{fill:#FFFFFF;}
	.st6{fill:#828282;}
	.st7{fill:#292629;}
	.st8{fill:#1A1A1B;}
	.st9{fill:#dfdfdf;}
	.st10{fill:#797979;}
</style>
<circle id="XMLID_8221_" class="st0" cx="256.0887" cy="255.7101" r="249.4083"/>
<g id="XMLID_8003_">
	<polygon id="XMLID_8070_" class="st1" points="245.8008,388.8943 245.806,388.908 245.8071,388.898 	"/>
	<path id="XMLID_8069_" class="st1" d="M254.6987,340.6641c30.0557-23.0545,40.8229-38.0364,45.3911-40.8155
		c-1.6746-5.6248-2.3355-11.0331-2.568-15.6936c-14.7404,12.4168-21.258,16.6653-40.8217,15.9914
		c-21.1015,0.7262-27.0086-4.2548-44.4464-19.0583c-0.1042-0.089-0.1821-0.1921-0.2845-0.2826
		c-0.0768,5.3126-0.5812,12.0067-2.673,19.0349C213.858,302.6006,224.6188,317.5906,254.6987,340.6641z"/>
	<path id="XMLID_8068_" class="st2" d="M234.9973,457.5016c1.1438-7.5905,2.2676-14.963,3.3369-21.9189v-0.0007
		c0.0208-0.1313,0.0397-0.2581,0.0597-0.3868c3.4481-22.4033,6.3176-40.2855,7.4121-46.2871l-0.0052-0.0137
		c-0.5478-0.3256-1.0044-0.7395-1.3519-1.2313v0.0145c-0.1168-0.1565-0.2644-0.2971-0.346-0.4718
		c-0.0019-0.0037-0.0056-0.0063-0.0056-0.0063c-0.5901-1.32-1.1879-2.5506-1.7828-3.7315
		c-0.1268-0.2526-0.2526-0.4933-0.3794-0.7406c-3.2052-6.2431-6.2186-10.8903-7.2311-16.4561
		c-0.1042-0.5541-0.1899-1.1193-0.2507-1.6961c-0.0063-0.0597-0.0208-0.1139-0.0263-0.1747
		c-2.3588,3.2905-3.8646,6.6281-3.5638,9.8136c1.2458,13.199-40.1527-35.4432-39.4899-54.135
		c-4.234,2.4022-9.2603,4.7195-14.7964,7.0312c0.0026,0.007,0.0174,0.0107,0.0174,0.0107
		C186.1804,356.4745,211.0085,416.3542,234.9973,457.5016z"/>
	<path id="XMLID_8067_" class="st2" d="M94.3149,355.1672c0.0089-0.0037,0.0315-0.0126,0.0415-0.0171
		c-0.1124,0.0423-0.2081,0.0842-0.316,0.1265c0.0653-0.0052,0.1224,0.0063,0.1866,0.0019
		C94.2604,355.2488,94.2767,355.1853,94.3149,355.1672z"/>
	<path id="XMLID_8066_" class="st2" d="M278.5354,374.2139c0.3008-3.1811-1.2013-6.5142-3.5557-9.7999
		c-0.0045,0.056-0.0182,0.1087-0.0234,0.1639c-0.062,0.5786-0.1476,1.1453-0.2518,1.7012
		c-0.2103,1.1516-0.4925,2.2765-0.8619,3.3691c0,0-0.003,0.0119-0.0048,0.0174l0,0c-1.4079,4.1669-3.8164,8.1039-6.3481,13.0307
		c-0.1342,0.2618-0.2674,0.517-0.402,0.7841c-0.593,1.1772-1.188,2.4033-1.7747,3.7151c-0.0797,0.1795-0.2318,0.3189-0.3497,0.4781
		v-0.0145c-0.3494,0.4955-0.8104,0.9128-1.3637,1.2399c1.0841,5.9397,3.9117,23.5604,7.3201,45.6911
		c0.0504,0.326,0.1013,0.6513,0.1528,0.9873v0.0026c0.8757,5.6964,1.7884,11.6725,2.7182,17.8206
		c24.2644-41.1233,48.4623-99.6997,57.2927-126.7364c0,0,0.0045-0.0026,0.0052-0.0052c-4.8263-2.0403-9.2376-4.0883-13.0481-6.2001
		C318.1333,339.4265,277.2978,387.3225,278.5354,374.2139z"/>
	<path id="XMLID_8065_" class="st2" d="M413.5425,355.343c0.7499,0.0842,1.5258,0.2225,2.3325,0.4236
		c-0.7677-0.3442-1.6597-0.6973-2.69-1.0622c0.0052,0.003,0.0197,0.0093,0.0252,0.0119
		C413.3842,354.7933,413.4803,355.0333,413.5425,355.343z"/>
	<path id="XMLID_8064_" class="st3" d="M94.227,355.2784c-0.0642,0.0045-0.1213-0.007-0.1866-0.0019
		c-0.9888,0.0827-2.0221,0.2563-3.1139,0.5478c-11.1899,2.9864-18.8665,30.0884-25.7672,60.2943
		c17.0077,20.2221,37.1589,37.6967,59.7146,51.682c-0.2047-6.4063-0.6602-12.2629-1.5529-17.1898
		C119.1311,427.4589,90.7136,358.3709,94.227,355.2784z"/>
	<path id="XMLID_8063_" class="st3" d="M416.2003,355.8244c-0.1135-0.0297-0.2122-0.0308-0.3253-0.0579
		c-0.8067-0.201-1.5826-0.3394-2.3325-0.4236c1.4298,7.0988-25.2854,72.8747-29.3403,95.268
		c-1.0214,5.6423-1.4687,12.5092-1.6189,20.0285c22.6803-13.3778,43.0456-30.2323,60.3844-49.845
		C435.4596,388.8364,427.9633,358.9639,416.2003,355.8244z"/>
	<path id="XMLID_8049_" class="st4" d="M271.0725,447.8738h-6.1092v-13.8266h5.873c0.0282,0.1829,0.056,0.3638,0.0834,0.543
		c-3.4084-22.1307-6.2361-39.7514-7.3201-45.6911c-0.1302,0.0768-0.2407,0.1836-0.3757,0.2507
		c-0.3197,0.1584-0.6747,0.231-1.0259,0.3097v0.3386h-3.1636l-3.2868,0.211v0.1339l-1.0433-0.0668l-1.0429,0.0668v-0.1339
		l-3.286-0.211h-3.1611v-0.3379c-0.3531-0.0786-0.7091-0.151-1.0288-0.3104c-0.1357-0.0671-0.2463-0.174-0.3783-0.2518l-0.0011,0.01
		c-1.0945,6.0016-3.964,23.8839-7.4121,46.2871c0.059-0.3828,0.1176-0.7614,0.1773-1.1479h5.8778v13.8266h-6.1148v-12.2911
		c-1.0693,6.9559-2.193,14.3284-3.3369,21.9189c0,0,0.0019,0.003,0.003,0.0048c0.1891-1.2543,0.3802-2.5428,0.5686-3.7849v4.748
		c0.9235,1.5729,1.8463,3.1284,2.7653,4.6416v-9.7061h6.1148v13.8277h-3.5605c2.1296,3.3847,4.2422,6.5891,6.3258,9.5718v-4.0412
		h6.1092v10.463c0.9146-1.0767,1.837-2.2157,2.7653-3.3884v-7.0746h5.2862c1.2551-1.7721,2.5154-3.6217,3.7823-5.5306h-0.194
		v-13.8277h6.1092v4.5367c0.9057-1.485,1.8122-3.0053,2.7182-4.5411c-0.9298-6.1481-1.8426-12.1242-2.7182-17.8206V447.8738z
		 M264.9633,396.9054c0.5578,3.378,1.2287,7.5308,1.9794,12.2518h-1.9794V396.9054z M264.9633,414.6878h2.8558
		c0.6758,4.2823,1.3982,8.8957,2.1623,13.8277h-5.0181V414.6878z M253.3234,395.3288v13.8284h-6.1092v-13.8284H253.3234z
		 M244.4489,428.5155h-5.0236c0.764-4.932,1.4869-9.5454,2.1622-13.8277h2.8614V428.5155z M244.4489,409.1572h-1.985
		c0.7533-4.7366,1.4261-8.8972,1.985-12.2826V409.1572z M253.3234,467.2329h-6.1092v-13.8277h6.1092V467.2329z M253.3234,447.8738
		h-6.1092v-13.8266h6.1092V447.8738z M253.3234,428.5155h-6.1092v-13.8277h6.1092V428.5155z M262.198,467.2329h-6.1092v-13.8277
		h6.1092V467.2329z M262.198,447.8738h-6.1092v-13.8266h6.1092V447.8738z M262.198,428.5155h-6.1092v-13.8277h6.1092V428.5155z
		 M262.198,409.1572h-6.1092v-13.8284h6.1092V409.1572z"/>
	<path id="XMLID_8048_" class="st5" d="M242.3145,383.4679c0.5949,1.1809,1.1928,2.4115,1.781,3.7278c0,0,0.0056,0.0063,0.0074,0.01
		c-0.0019-0.0037-0.0056-0.0063-0.0056-0.0063C243.5061,385.8745,242.9094,384.6506,242.3145,383.4679z"/>
	<path id="XMLID_8047_" class="st5" d="M234.4269,364.4003c0.0056,0.0608,0.02,0.115,0.0263,0.1747
		c-0.0063-0.0623-0.01-0.1268-0.0156-0.1902C234.4343,364.3903,234.4306,364.3959,234.4269,364.4003z"/>
	<path id="XMLID_8046_" class="st5" d="M274.7046,366.2792c-0.2166,1.1516-0.4925,2.2754-0.8619,3.3691
		C274.212,368.5557,274.4943,367.4308,274.7046,366.2792z"/>
	<path id="XMLID_8045_" class="st5" d="M274.9798,364.4141c-0.0026-0.0056-0.0063-0.01-0.0063-0.01
		c-0.0093,0.0541-0.0119,0.115-0.0171,0.174C274.9616,364.5227,274.9753,364.4701,274.9798,364.4141z"/>
	<path id="XMLID_8044_" class="st5" d="M267.0877,383.4805c-0.5923,1.179-1.1865,2.3996-1.7747,3.7151
		C265.8997,385.8838,266.4947,384.6577,267.0877,383.4805z"/>
	<path id="XMLID_8040_" class="st5" d="M246.1854,389.1498c0.3197,0.1595,0.6758,0.2318,1.0288,0.3104v-13.4898h6.1092v13.8277
		h-2.9482l3.286,0.211v0.1339l1.0429-0.0668l1.0433,0.0668v-0.1339l3.2868-0.211h-2.9456v-13.8277h6.1092v13.489
		c0.3512-0.0786,0.7062-0.1513,1.0259-0.3097c0.135-0.0671,0.2455-0.174,0.3757-0.2507c0.5533-0.3271,1.0144-0.7444,1.3637-1.2399
		v-11.6888h6.0866c-1.0912,2.0881-2.3151,4.2967-3.5601,6.726c2.5316-4.9268,4.9402-8.8638,6.3481-13.0307v-6.7531
		c-0.8556-1.0741-1.7799-2.137-2.7653-3.1866v10.713h-6.1092v-13.8277h3.0372c-2.0295-1.9486-4.1001-3.8019-6.0332-5.5306h-5.8785
		v-5.5633c-0.5778-0.6294-1.0296-1.2035-1.3901-1.7376c-0.3557,0.5307-0.8041,1.0993-1.3752,1.722v5.5789h-5.8919
		c-1.9334,1.7287-4.0041,3.582-6.0324,5.5306h3.0498v13.8277h-6.1148v-10.7219c-0.9851,1.0496-1.9097,2.1114-2.7653,3.1844v6.7549
		c-0.3712-1.0993-0.6483-2.2275-0.8649-3.3854c1.0125,5.5659,4.026,10.213,7.2311,16.4561
		c-1.2502-2.4412-2.4801-4.6594-3.5757-6.7568h6.0895v11.6925c0.3475,0.4918,0.8041,0.9057,1.3519,1.2313l0.0063,0.0037
		C245.9391,388.9759,246.0497,389.0827,246.1854,389.1498z M256.0887,356.6114h6.1092v13.8277h-6.1092V356.6114z M247.2142,356.6114
		h6.1092v13.8277h-6.1092V356.6114z"/>
	<polygon id="XMLID_8039_" points="253.3234,375.9705 247.2142,375.9705 247.2142,389.4603 247.2142,389.7981 250.3753,389.7981 
		253.3234,389.7981 	"/>
	<rect id="XMLID_8038_" x="247.2142" y="395.3288" width="6.1092" height="13.8284"/>
	<rect id="XMLID_8037_" x="247.2142" y="356.6114" width="6.1092" height="13.8277"/>
	<rect id="XMLID_8036_" x="247.2142" y="414.6878" width="6.1092" height="13.8277"/>
	<path id="XMLID_8035_" d="M247.2142,472.7635v4.0412c1.8181,2.6025,3.6102,5.0147,5.3756,7.2601
		c0.2448-0.2823,0.4874-0.5493,0.7336-0.8382v-10.463H247.2142z"/>
	<rect id="XMLID_8034_" x="247.2142" y="453.4052" width="6.1092" height="13.8277"/>
	<rect id="XMLID_8033_" x="247.2142" y="434.0472" width="6.1092" height="13.8266"/>
	<path id="XMLID_8032_" d="M235.0003,457.5064c0.1899,0.3249,0.3794,0.6401,0.5686,0.9632v-4.748
		C235.3804,454.9637,235.1894,456.2521,235.0003,457.5064z"/>
	<path id="XMLID_8031_" d="M238.3342,370.4391h6.1148v-13.8277h-3.0498c-1.0559,1.014-2.0762,2.0529-3.065,3.1058V370.4391z"/>
	<path id="XMLID_8030_" d="M235.5688,362.9016c-0.3939,0.4944-0.7751,0.9873-1.1312,1.4832
		c0.0056,0.0634,0.0093,0.128,0.0156,0.1902c0.0608,0.5768,0.1465,1.142,0.2507,1.6961c0.2166,1.1579,0.4937,2.2861,0.8649,3.3854
		V362.9016z"/>
	<path id="XMLID_8029_" d="M244.4489,375.9705h-6.0895c1.0956,2.0974,2.3254,4.3156,3.5757,6.7568
		c0.1268,0.2474,0.2526,0.4881,0.3794,0.7406c0.5949,1.1828,1.1917,2.4067,1.781,3.7278c0,0,0.0056,0.0063,0.0074,0.01
		c0.0816,0.1747,0.2292,0.3152,0.346,0.4718v-0.0145V375.9705z"/>
	<path id="XMLID_8028_" d="M244.4489,453.4052h-6.1148v9.7061c0.8538,1.406,1.705,2.7724,2.5543,4.1216h3.5605V453.4052z"/>
	<path id="XMLID_8027_" d="M244.4489,447.8738v-13.8266h-5.8778c-0.0597,0.3865-0.1183,0.7651-0.1773,1.1479
		c-0.02,0.1287-0.0389,0.2556-0.0597,0.3868v0.0007v12.2911H244.4489z"/>
	<path id="XMLID_8026_" d="M244.4489,409.1572v-12.2826c-0.5589,3.3854-1.2317,7.546-1.985,12.2826H244.4489z"/>
	<path id="XMLID_8025_" d="M239.4253,428.5155h5.0236v-13.8277h-2.8614C240.9122,418.9701,240.1893,423.5835,239.4253,428.5155z"/>
	<path id="XMLID_8024_" d="M264.9633,453.4052v13.8277h0.194c1.9631-2.9601,3.9369-6.0476,5.9152-9.291v-4.5367H264.9633z"/>
	<path id="XMLID_8023_" d="M264.9633,434.0472v13.8266h6.1092v-12.2937v-0.0026c-0.0515-0.336-0.1024-0.6613-0.1528-0.9873
		c-0.0274-0.1791-0.0553-0.3601-0.0834-0.543H264.9633z"/>
	<path id="XMLID_8022_" d="M253.3234,345.5019c-1.4698,1.6011-3.556,3.4908-5.8919,5.5789h5.8919V345.5019z"/>
	<path id="XMLID_8021_" d="M261.9673,351.0808c-2.3292-2.0807-4.4109-3.9651-5.8785-5.5633v5.5633H261.9673z"/>
	<rect id="XMLID_8020_" x="256.0887" y="414.6878" width="6.1092" height="13.8277"/>
	<rect id="XMLID_8019_" x="256.0887" y="453.4052" width="6.1092" height="13.8277"/>
	<rect id="XMLID_8018_" x="256.0887" y="434.0472" width="6.1092" height="13.8266"/>
	<polygon id="XMLID_8017_" points="262.198,375.9705 256.0887,375.9705 256.0887,389.7981 259.0343,389.7981 262.198,389.7981 
		262.198,389.4595 	"/>
	<rect id="XMLID_8016_" x="256.0887" y="395.3288" width="6.1092" height="13.8284"/>
	<path id="XMLID_8015_" d="M256.0887,479.8381c1.745-2.2056,3.5067-4.5589,5.2862-7.0746h-5.2862V479.8381z"/>
	<rect id="XMLID_8014_" x="256.0887" y="356.6114" width="6.1092" height="13.8277"/>
	<path id="XMLID_8013_" d="M264.9633,396.9054v12.2518h1.9794C266.192,404.4362,265.5211,400.2834,264.9633,396.9054z"/>
	<path id="XMLID_8012_" d="M264.9633,375.9705v11.6888v0.0145c0.1179-0.1591,0.27-0.2986,0.3497-0.4781
		c0.5882-1.3156,1.1824-2.5361,1.7747-3.7151c0.1346-0.2671,0.2678-0.5222,0.402-0.7841c1.2451-2.4293,2.469-4.6379,3.5601-6.726
		H264.9633z"/>
	<path id="XMLID_8011_" d="M273.8378,369.6658c0.0019-0.0056,0.003-0.0111,0.003-0.0111c0.3713-1.1,0.6472-2.2238,0.8638-3.3754
		c0.1042-0.5559,0.1899-1.1227,0.2518-1.7012c0.0052-0.059,0.0078-0.1198,0.0145-0.1784c-0.3579-0.4981-0.7392-0.9925-1.1331-1.4869
		V369.6658L273.8378,369.6658z"/>
	<path id="XMLID_8010_" d="M264.9633,370.4391h6.1092v-10.713c-0.9914-1.0555-2.0146-2.0977-3.072-3.1147h-3.0372V370.4391z"/>
	<path id="XMLID_8009_" d="M267.8191,414.6878h-2.8558v13.8277h5.0181C269.2173,423.5835,268.4948,418.9701,267.8191,414.6878z"/>
	<path id="XMLID_8008_" class="st6" d="M230.8631,374.2139c-0.3008-3.1855,1.205-6.5231,3.5638-9.8136
		c0.0037-0.0045,0.0074-0.01,0.0108-0.0156c0.356-0.4959,0.7373-0.9888,1.1312-1.4832c0.8556-1.073,1.7802-2.1348,2.7653-3.1844
		c0.9888-1.0529,2.0091-2.0918,3.065-3.1058c2.0284-1.9486,4.099-3.8019,6.0324-5.5306c2.3358-2.0881,4.422-3.9778,5.8919-5.5789
		c0.5712-0.6227,1.0196-1.1913,1.3752-1.722c0.3605,0.5341,0.8122,1.1082,1.3901,1.7376c1.4676,1.5981,3.5494,3.4826,5.8785,5.5633
		c1.933,1.7287,4.0037,3.582,6.0332,5.5306c1.0574,1.017,2.0807,2.0591,3.072,3.1147c0.9854,1.0496,1.9097,2.1126,2.7653,3.1866
		c0.3939,0.4944,0.7751,0.9888,1.1331,1.4869c0,0,0.0063,0.0089,0.0089,0.0145c2.3544,3.2857,3.8564,6.6188,3.5557,9.7999
		c-1.2376,13.1086,39.5978-34.7875,39.5051-53.7549c-0.0015-0.4625-0.0052-0.9243-0.0579-1.3519
		c-0.3268-2.6781-8.142-6.7393-15.3568-18.9489c-0.576-0.9732-1.3626-1.024-2.5361-0.3097
		c-4.5682,2.7791-15.3353,17.7609-45.3911,40.8155c-30.0798-23.0735-40.8407-38.0635-45.4026-40.8236
		c-1.1661-0.7062-1.9494-0.652-2.5224,0.3178c-7.2159,12.2095-15.0312,16.2707-15.3591,18.9489
		c-0.0371,0.3071-0.0297,0.6468-0.0415,0.9717C190.7104,338.7708,232.1089,387.413,230.8631,374.2139z"/>
	<path id="XMLID_8007_" class="st7" d="M238.4636,496.2935c4.3935-2.2294,9.159-6.5068,14.1262-12.2288
		c-1.7654-2.2453-3.5575-4.6576-5.3756-7.2601c-2.0836-2.9827-4.1962-6.1871-6.3258-9.5718
		c-0.8493-1.3493-1.7005-2.7156-2.5543-4.1216c-0.9191-1.5132-1.8418-3.0687-2.7653-4.6416
		c-0.1891-0.323-0.3787-0.6383-0.5686-0.9632c-0.0011-0.0019-0.0019-0.0037-0.0019-0.0037
		c-23.9899-41.1485-48.818-101.0282-58.4028-130.3748c0,0-0.0163-0.0107-0.0189-0.0178
		c-1.7999-4.6264-77.7689,26.0658-82.2203,28.04c-0.01,0.0045-0.0326,0.0133-0.0415,0.0171
		c-0.0382,0.0182-0.0545,0.0816-0.0879,0.1113c-3.5134,3.0924,24.9041,72.1804,29.094,95.3325
		c0.8927,4.9268,1.3482,10.7835,1.5529,17.1898c32.9557,20.432,71.0229,33.357,111.8458,36.4962
		C237.1796,499.5595,237.7511,496.6555,238.4636,496.2935z"/>
	<path id="XMLID_8006_" class="st8" d="M413.5425,355.343c-0.0623-0.3097-0.1584-0.5497-0.3323-0.6268
		c-0.0056-0.0026-0.02-0.0089-0.0252-0.0119c-4.3457-1.9312-80.4782-32.7684-82.0964-28.0452
		c-0.0007,0.0026-0.0044,0.0037-0.0044,0.0037c-8.8311,27.0382-33.0291,85.6146-57.2935,126.7379
		c-0.9061,1.5358-1.8125,3.0561-2.7182,4.5411c-1.9783,3.2434-3.9521,6.331-5.9152,9.291
		c-1.2669,1.9089-2.5272,3.7585-3.7823,5.5306c-1.7795,2.5157-3.5412,4.869-5.2862,7.0746
		c-0.9283,1.1728-1.8507,2.3117-2.7653,3.3884c-0.2463,0.2889-0.4888,0.5559-0.7336,0.8382
		c-4.9673,5.722-9.7327,9.9994-14.1262,12.2288c-0.7125,0.362-1.284,3.266-1.7439,8.0033
		c6.3989,0.4918,12.8434,0.8215,19.369,0.8215c46.1822,0,89.4017-12.6008,126.4946-34.4789
		c0.1502-7.5193,0.5975-14.3862,1.6189-20.0285C388.2571,428.2177,414.9723,362.4417,413.5425,355.343z"/>
	<path id="XMLID_8005_" class="st9" d="M256.7,300.1465c19.5638,0.6739,26.0813-3.5746,40.8217-15.9914
		c1.1579-0.9762,2.3533-1.9875,3.6247-3.0668c18.308-15.5419,9.0837-47.978,20.1995-45.9503
		c10.9173,1.9909,23.316-27.5838,15.4837-35.0378c-3.8042-0.362-6.9344,3.2389-9.8607,8.1602
		c-3.2853,5.5236-2.0083,14.0476-5.2755,13.8496c-4.4106-14.9489-3.4225-28.2684-2.5569-43.7955
		c-30.638,8.9932-62.2029,13.6563-87.732-5.0871c-5.2302-3.839-10.2935-8.8882-18.223-8.7577
		c-9.1553,0.1513-12.8278,5.5877-11.5456,14.3792c0.6427,4.4043,0.9606,10.3551,1.215,12.9735
		c0.8894,9.1401-4.8078,20.3949-6.9096,22.5553c-1.3645,1.4045-4.6958,7.2493-6.6852,7.7355
		c-1.6345,0.3994-0.5252-9.146-5.9816-17.3822c-4.3101-6.5049-6.3058-5.0689-6.3058-5.0689
		c-8.7343,6.7494,3.9696,37.5031,15.0854,35.4758c11.0524-2.0158,2.021,30.0257,19.915,45.6677
		c0.1024,0.0905,0.1803,0.1936,0.2845,0.2826C229.6914,295.8917,235.5985,300.8727,256.7,300.1465z"/>
	<path id="XMLID_8004_" class="st10" d="M183.2745,204.7309c5.4565,8.2362,4.3471,17.7817,5.9816,17.3822
		c1.9894-0.4862,5.3207-6.331,6.6852-7.7355c2.1018-2.1604,7.799-13.4153,6.9096-22.5553
		c-0.2544-2.6184-0.5723-8.5693-1.215-12.9735c-1.2822-8.7914,2.3904-14.2279,11.5456-14.3792
		c7.9295-0.1306,12.9928,4.9187,18.223,8.7577c25.5291,18.7434,57.094,14.0803,87.732,5.0871
		c-0.8656,15.5271-1.8537,28.8466,2.5569,43.7955c3.2671,0.198,1.9902-8.326,5.2755-13.8496
		c2.9263-4.9213,6.0565-8.5222,9.8607-8.1602c0.4662,0.0445,0.9372,0.1216,1.4242,0.2908
		c9.1082-19.349,10.0862-50.8327,1.083-70.2288c-9.0032-19.3954-23.3742-28.4828-37.6147-44.6519
		c1.3096,4.3831-4.6149,10.9407-10.2101,11.454c-4.6668,0.4284-12.4268-2.0844-17.0937-2.6485
		c-23.5686-2.8469-37.0232-3.9199-56.308,2.8469c-9.9423,3.4878-19.3246,8.402-26.776,15.6565
		c-9.6333,9.3789-17.6322,26.3495-19.214,39.5051c-0.8185,6.8146-1.6697,13.7335-0.6758,23.6506
		c0.4247,4.2392,3.0008,19.8716,5.5243,23.6873C176.9687,199.662,178.9644,198.2259,183.2745,204.7309z"/>
</g>
</svg>
